<?xml version="1.0" encoding="UTF-8" standalone="no"?><svg xmlns="http://www.w3.org/2000/svg" xmlns:xlink="http://www.w3.org/1999/xlink" contentStyleType="text/css" height="358px" preserveAspectRatio="none" style="width:434px;height:358px;background:#FFFFFF;" version="1.1" viewBox="0 0 434 358" width="434px" zoomAndPan="magnify"><defs/><g><!--class BuildingCentreReceipt.BuildingCentreProductBase--><a href="BuildingCentreProductBase.html" target="_top" title="BuildingCentreProductBase.html" xlink:actuate="onRequest" xlink:href="BuildingCentreProductBase.html" xlink:show="new" xlink:title="BuildingCentreProductBase.html" xlink:type="simple"><g id="elem_BuildingCentreReceipt.BuildingCentreProductBase"><rect codeLine="5" fill="#F1F1F1" height="200.6094" id="BuildingCentreReceipt.BuildingCentreProductBase" rx="2.5" ry="2.5" style="stroke:#181818;stroke-width:0.5;" width="418" x="9" y="132"/><ellipse cx="119.25" cy="150.9688" fill="#A9DCDF" rx="11" ry="11" style="stroke:#181818;stroke-width:1.0;"/><path d="M119.3594,146.3125 L118.2031,151.3906 L120.5313,151.3906 L119.3594,146.3125 Z M117.875,144.0781 L120.8594,144.0781 L124.2188,156.4688 L121.7656,156.4688 L121,153.4063 L117.7188,153.4063 L116.9688,156.4688 L114.5313,156.4688 L117.875,144.0781 Z " fill="#000000"/><text fill="#000000" font-family="sans-serif" font-size="14" font-style="italic" lengthAdjust="spacing" textLength="189" x="139.75" y="149.9951">BuildingCentreProductBase</text><text fill="#000000" font-family="sans-serif" font-size="10" font-style="italic" lengthAdjust="spacing" textLength="111" x="178.75" y="162.5791">BuildingCentreReceipt</text><line style="stroke:#181818;stroke-width:0.5;" x1="10" x2="426" y1="169.9375" y2="169.9375"/><polygon fill="none" points="20,178.5859,24,182.5859,20,186.5859,16,182.5859" style="stroke:#B38D22;stroke-width:1.0;"/><text fill="#000000" font-family="sans-serif" font-size="14" lengthAdjust="spacing" textLength="91" x="29" y="186.9326">price: double</text><polygon fill="none" points="20,194.8828,24,198.8828,20,202.8828,16,198.8828" style="stroke:#B38D22;stroke-width:1.0;"/><text fill="#000000" font-family="sans-serif" font-size="14" lengthAdjust="spacing" textLength="88" x="29" y="203.2295">name: String</text><line style="stroke:#181818;stroke-width:0.5;" x1="10" x2="426" y1="210.5313" y2="210.5313"/><polygon fill="#4177AF" points="20,220.1797,16,226.1797,24,226.1797" style="stroke:#1963A0;stroke-width:1.0;"/><text fill="#000000" font-family="sans-serif" font-size="14" lengthAdjust="spacing" textLength="392" x="29" y="227.5264">BuildingCentreProductBase(BuildingCentreProductBase)</text><polygon fill="#4177AF" points="20,236.4766,16,242.4766,24,242.4766" style="stroke:#1963A0;stroke-width:1.0;"/><text fill="#000000" font-family="sans-serif" font-size="14" lengthAdjust="spacing" textLength="297" x="29" y="243.8232">BuildingCentreProductBase(String, double)</text><ellipse cx="20" cy="256.7734" fill="#84BE84" rx="3" ry="3" style="stroke:#038048;stroke-width:1.0;"/><text fill="#000000" font-family="sans-serif" font-size="14" lengthAdjust="spacing" textLength="122" x="29" y="260.1201">getName(): String</text><ellipse cx="20" cy="273.0703" fill="#84BE84" rx="3" ry="3" style="stroke:#038048;stroke-width:1.0;"/><text fill="#000000" font-family="sans-serif" font-size="14" font-style="italic" lengthAdjust="spacing" textLength="161" x="29" y="276.417">calculatePrice(): double</text><ellipse cx="20" cy="289.3672" fill="#84BE84" rx="3" ry="3" style="stroke:#038048;stroke-width:1.0;"/><text fill="#000000" font-family="sans-serif" font-size="14" lengthAdjust="spacing" textLength="306" x="29" y="292.7139">compareTo(BuildingCentreProductBase): int</text><ellipse cx="20" cy="305.6641" fill="#84BE84" rx="3" ry="3" style="stroke:#038048;stroke-width:1.0;"/><text fill="#000000" font-family="sans-serif" font-size="14" lengthAdjust="spacing" textLength="174" x="29" y="309.0107">getPricePerUnit(): double</text><ellipse cx="20" cy="321.9609" fill="#84BE84" rx="3" ry="3" style="stroke:#038048;stroke-width:1.0;"/><text fill="#000000" font-family="sans-serif" font-size="14" lengthAdjust="spacing" textLength="292" x="29" y="325.3076">price(double): BuildingCentreProductBase</text></g></a><!--class java.lang.Comparable--><g id="elem_java.lang.Comparable"><rect codeLine="17" fill="#F1F1F1" height="62.2344" id="java.lang.Comparable" rx="2.5" ry="2.5" style="stroke:#181818;stroke-width:0.5;" width="330" x="53" y="10"/><ellipse cx="86.9" cy="28.9688" fill="#B4A7E5" rx="11" ry="11" style="stroke:#181818;stroke-width:1.0;"/><path d="M82.8219,24.7344 L82.8219,22.5781 L90.2125,22.5781 L90.2125,24.7344 L87.7438,24.7344 L87.7438,32.8125 L90.2125,32.8125 L90.2125,34.9688 L82.8219,34.9688 L82.8219,32.8125 L85.2906,32.8125 L85.2906,24.7344 L82.8219,24.7344 Z " fill="#000000"/><text fill="#000000" font-family="sans-serif" font-size="14" font-style="italic" lengthAdjust="spacing" textLength="83" x="105.1" y="27.9951">Comparable</text><text fill="#000000" font-family="sans-serif" font-size="10" font-style="italic" lengthAdjust="spacing" textLength="45" x="124.1" y="40.5791">java.lang</text><rect fill="#FFFFFF" height="15.9688" style="stroke:#181818;stroke-width:1.0;stroke-dasharray:2.0,2.0;" width="171" x="215" y="7"/><text fill="#000000" font-family="sans-serif" font-size="12" font-style="italic" lengthAdjust="spacing" textLength="169" x="216" y="19.1387">BuildingCentreProductBase</text><line style="stroke:#181818;stroke-width:0.5;" x1="54" x2="382" y1="47.9375" y2="47.9375"/><ellipse cx="64" cy="61.5859" fill="#84BE84" rx="3" ry="3" style="stroke:#038048;stroke-width:1.0;"/><text fill="#000000" font-family="sans-serif" font-size="14" font-style="italic" lengthAdjust="spacing" textLength="304" x="73" y="64.9326">compareTo(BuildingCentreProductBase): int</text></g><!--reverse link java.lang.Comparable to BuildingCentreReceipt.BuildingCentreProductBase--><g id="link_java.lang.Comparable_BuildingCentreReceipt.BuildingCentreProductBase"><path codeLine="21" d="M218,92.44 C218,104.69 218,118.21 218,131.86 " fill="none" id="java.lang.Comparable-backto-BuildingCentreReceipt.BuildingCentreProductBase" style="stroke:#181818;stroke-width:1.0;stroke-dasharray:7.0,7.0;"/><polygon fill="none" points="211,92.03,218,72.03,225,92.03,211,92.03" style="stroke:#181818;stroke-width:1.0;"/></g><text fill="#888888" font-family="sans-serif" font-size="10" lengthAdjust="spacing" textLength="186" x="117" y="347.8916">UMLDoclet 2.1.0, PlantUML 1.2022.14</text><!--SRC=[bLDDJy904BtxAoOO4mXa0yPJGpY0HpL4v8GSXkq0QxQxpUwKH15_kzjI-P8QwQNfcvatRz- -0W1uOZ2Oa4zHqeXITCZMWR66ha8PbYece2JbTvWhqh4_HHFYfGrmWUFCiqF983Lw3xMkLnyKTUvw_KpfM9d5W0mx6ZeRPvBxwEdLb3tjavvdagHIhW5wE5iHbPmmcLJMn98JFPt2kj2RFzUfKv8YY6qsqxI7SrSY6B4BD3lqgvAuNbbf_6TwkwTLgjYFD1V4Jq59lV5Bo_h7xGqq9MgPQUJ06GwJDvySfobj4YwNNkmVGYDGXezM5tH3ScEZ-1nhuLsz51r19NKniTc69EmWDmznEyZ7e527WUKW46-uGg7HB8eGxBx4lhbRkR1tSCD7HbraGwdut6heVWfnQJAtT99o1s1kRVuQFpxSMwd3VtWhEgBTWc7On065cnKvhwofDxu1]--></g></svg>