<?xml version="1.0" encoding="UTF-8" standalone="no"?><svg xmlns="http://www.w3.org/2000/svg" xmlns:xlink="http://www.w3.org/1999/xlink" contentStyleType="text/css" height="322px" preserveAspectRatio="none" style="width:425px;height:322px;background:#FFFFFF;" version="1.1" viewBox="0 0 425 322" width="425px" zoomAndPan="magnify"><defs/><g><!--class BuildingCentreReceipt.Material--><a href="Material.html" target="_top" title="Material.html" xlink:actuate="onRequest" xlink:href="Material.html" xlink:show="new" xlink:title="Material.html" xlink:type="simple"><g id="elem_BuildingCentreReceipt.Material"><rect codeLine="5" fill="#F1F1F1" height="168.0156" id="BuildingCentreReceipt.Material" rx="2.5" ry="2.5" style="stroke:#181818;stroke-width:0.5;" width="279" x="89" y="129"/><ellipse cx="170.75" cy="147.9688" fill="#ADD1B2" rx="11" ry="11" style="stroke:#181818;stroke-width:1.0;"/><path d="M173.7188,153.6094 Q173.1406,153.9063 172.5,154.0469 Q171.8594,154.2031 171.1563,154.2031 Q168.6563,154.2031 167.3281,152.5625 Q166.0156,150.9063 166.0156,147.7813 Q166.0156,144.6563 167.3281,143 Q168.6563,141.3438 171.1563,141.3438 Q171.8594,141.3438 172.5,141.5 Q173.1563,141.6563 173.7188,141.9531 L173.7188,144.6719 Q173.0938,144.0938 172.5,143.8281 Q171.9063,143.5469 171.2813,143.5469 Q169.9375,143.5469 169.25,144.625 Q168.5625,145.6875 168.5625,147.7813 Q168.5625,149.875 169.25,150.9531 Q169.9375,152.0156 171.2813,152.0156 Q171.9063,152.0156 172.5,151.75 Q173.0938,151.4688 173.7188,150.8906 L173.7188,153.6094 Z " fill="#000000"/><text fill="#000000" font-family="sans-serif" font-size="14" lengthAdjust="spacing" textLength="53" x="218.25" y="146.9951">Material</text><text fill="#000000" font-family="sans-serif" font-size="10" lengthAdjust="spacing" textLength="107" x="191.25" y="159.5791">BuildingCentreReceipt</text><line style="stroke:#181818;stroke-width:0.5;" x1="90" x2="367" y1="166.9375" y2="166.9375"/><ellipse cx="100" cy="180.5859" fill="none" rx="3" ry="3" style="stroke:#038048;stroke-width:1.0;"/><text fill="#000000" font-family="sans-serif" font-size="14" lengthAdjust="spacing" text-decoration="underline" textLength="253" x="109" y="183.9326">MAXIMUM_AMOUNT_TO_DELIVER: int</text><rect fill="none" height="6" style="stroke:#C82930;stroke-width:1.0;" width="6" x="97" y="193.8828"/><text fill="#000000" font-family="sans-serif" font-size="14" lengthAdjust="spacing" textLength="166" x="109" y="200.2295">selfFetchStorage: String</text><rect fill="none" height="6" style="stroke:#C82930;stroke-width:1.0;" width="6" x="97" y="210.1797"/><text fill="#000000" font-family="sans-serif" font-size="14" lengthAdjust="spacing" textLength="66" x="109" y="216.5264">count: int</text><line style="stroke:#181818;stroke-width:0.5;" x1="90" x2="367" y1="223.8281" y2="223.8281"/><ellipse cx="100" cy="237.4766" fill="#84BE84" rx="3" ry="3" style="stroke:#038048;stroke-width:1.0;"/><text fill="#000000" font-family="sans-serif" font-size="14" lengthAdjust="spacing" textLength="232" x="109" y="240.8232">Material(String, String, double, int)</text><ellipse cx="100" cy="253.7734" fill="#84BE84" rx="3" ry="3" style="stroke:#038048;stroke-width:1.0;"/><text fill="#000000" font-family="sans-serif" font-size="14" lengthAdjust="spacing" textLength="116" x="109" y="257.1201">Material(Material)</text><ellipse cx="100" cy="270.0703" fill="#84BE84" rx="3" ry="3" style="stroke:#038048;stroke-width:1.0;"/><text fill="#000000" font-family="sans-serif" font-size="14" lengthAdjust="spacing" textLength="129" x="109" y="273.417">fetchFrom(): String</text><ellipse cx="100" cy="286.3672" fill="#84BE84" rx="3" ry="3" style="stroke:#038048;stroke-width:1.0;"/><text fill="#000000" font-family="sans-serif" font-size="14" lengthAdjust="spacing" textLength="162" x="109" y="289.7139">calculatePrice(): double</text></g></a><!--class BuildingCentreReceipt.BuildingCentreProductBase--><a href="BuildingCentreProductBase.html" target="_top" title="BuildingCentreProductBase.html" xlink:actuate="onRequest" xlink:href="BuildingCentreProductBase.html" xlink:show="new" xlink:title="BuildingCentreProductBase.html" xlink:type="simple"><g id="elem_BuildingCentreReceipt.BuildingCentreProductBase"><rect codeLine="15" fill="#F1F1F1" height="62.2344" id="BuildingCentreReceipt.BuildingCentreProductBase" rx="2.5" ry="2.5" style="stroke:#181818;stroke-width:0.5;" width="221" x="7" y="7"/><ellipse cx="22" cy="25.9688" fill="#A9DCDF" rx="11" ry="11" style="stroke:#181818;stroke-width:1.0;"/><path d="M22.1094,21.3125 L20.9531,26.3906 L23.2813,26.3906 L22.1094,21.3125 Z M20.625,19.0781 L23.6094,19.0781 L26.9688,31.4688 L24.5156,31.4688 L23.75,28.4063 L20.4688,28.4063 L19.7188,31.4688 L17.2813,31.4688 L20.625,19.0781 Z " fill="#000000"/><text fill="#000000" font-family="sans-serif" font-size="14" font-style="italic" lengthAdjust="spacing" textLength="189" x="36" y="24.9951">BuildingCentreProductBase</text><text fill="#000000" font-family="sans-serif" font-size="10" font-style="italic" lengthAdjust="spacing" textLength="111" x="75" y="37.5791">BuildingCentreReceipt</text><line style="stroke:#181818;stroke-width:0.5;" x1="8" x2="227" y1="44.9375" y2="44.9375"/><ellipse cx="18" cy="58.5859" fill="#84BE84" rx="3" ry="3" style="stroke:#038048;stroke-width:1.0;"/><text fill="#000000" font-family="sans-serif" font-size="14" font-style="italic" lengthAdjust="spacing" textLength="161" x="27" y="61.9326">calculatePrice(): double</text></g></a><!--class BuildingCentreReceipt.SelfFetchable--><a href="SelfFetchable.html" target="_top" title="SelfFetchable.html" xlink:actuate="onRequest" xlink:href="SelfFetchable.html" xlink:show="new" xlink:title="SelfFetchable.html" xlink:type="simple"><g id="elem_BuildingCentreReceipt.SelfFetchable"><rect codeLine="18" fill="#F1F1F1" height="62.2344" id="BuildingCentreReceipt.SelfFetchable" rx="2.5" ry="2.5" style="stroke:#181818;stroke-width:0.5;" width="155" x="263" y="7"/><ellipse cx="283.4" cy="25.9688" fill="#B4A7E5" rx="11" ry="11" style="stroke:#181818;stroke-width:1.0;"/><path d="M279.3219,21.7344 L279.3219,19.5781 L286.7125,19.5781 L286.7125,21.7344 L284.2438,21.7344 L284.2438,29.8125 L286.7125,29.8125 L286.7125,31.9688 L279.3219,31.9688 L279.3219,29.8125 L281.7906,29.8125 L281.7906,21.7344 L279.3219,21.7344 Z " fill="#000000"/><text fill="#000000" font-family="sans-serif" font-size="14" font-style="italic" lengthAdjust="spacing" textLength="93" x="307.6" y="24.9951">SelfFetchable</text><text fill="#000000" font-family="sans-serif" font-size="10" font-style="italic" lengthAdjust="spacing" textLength="111" x="298.6" y="37.5791">BuildingCentreReceipt</text><line style="stroke:#181818;stroke-width:0.5;" x1="264" x2="417" y1="44.9375" y2="44.9375"/><ellipse cx="274" cy="58.5859" fill="#84BE84" rx="3" ry="3" style="stroke:#038048;stroke-width:1.0;"/><text fill="#000000" font-family="sans-serif" font-size="14" font-style="italic" lengthAdjust="spacing" textLength="129" x="283" y="61.9326">fetchFrom(): String</text></g></a><!--reverse link BuildingCentreReceipt.BuildingCentreProductBase to BuildingCentreReceipt.Material--><g id="link_BuildingCentreReceipt.BuildingCentreProductBase_BuildingCentreReceipt.Material"><path codeLine="22" d="M147.68,86.03 C156.16,99.25 165.64,114.04 175.05,128.7 " fill="none" id="BuildingCentreReceipt.BuildingCentreProductBase-backto-BuildingCentreReceipt.Material" style="stroke:#181818;stroke-width:1.0;"/><polygon fill="none" points="141.74,89.75,136.83,69.13,153.53,82.19,141.74,89.75" style="stroke:#181818;stroke-width:1.0;"/></g><!--reverse link BuildingCentreReceipt.SelfFetchable to BuildingCentreReceipt.Material--><g id="link_BuildingCentreReceipt.SelfFetchable_BuildingCentreReceipt.Material"><path codeLine="23" d="M310.05,86.03 C301.49,99.25 291.92,114.04 282.43,128.7 " fill="none" id="BuildingCentreReceipt.SelfFetchable-backto-BuildingCentreReceipt.Material" style="stroke:#181818;stroke-width:1.0;stroke-dasharray:7.0,7.0;"/><polygon fill="none" points="304.25,82.12,320.99,69.13,316,89.73,304.25,82.12" style="stroke:#181818;stroke-width:1.0;"/></g><text fill="#888888" font-family="sans-serif" font-size="10" lengthAdjust="spacing" textLength="186" x="112.5" y="312.2979">UMLDoclet 2.1.0, PlantUML 1.2022.14</text><!--SRC=[fLHjQy8m4Fw-Nt480qKjS-oJYE3c1eATuiiOk24nlQw1D2d9TR0v__jIjPkTEXdhXoQzU-xbkISf08150iLYj0dZECQ46KRQWD8ApvmR8X4WO9pG6uG2PM1_McEaI3lpsiubinPABIlUiTcuQlkCq0WcdzJMTD6-JeKCX7gvGKK6HyXH95G2Pk6WnyjJm6oMRxs8Oldy3CjrpUnPMc8a-0ggVkUnvq_zUSSVJEydyybWthtjznvkHqqGYhu2wXPbU8V4ex6Zorwm2MCohlWtWkjKKJ6gcdTGte1haA-1JXSIQncwSW2URtPyOLRypkYuNDchNULCybIweA4H73F4fi0QiThCcYqi6SPfR-Z5EGwD3b9ErypYFrGucjF9SjHtGAUywTL9ZjdRJHDDw0xc3hjnBXnps7ymAkHnB0hVltT-JBgjC7-TOEkZNZzn-7_9M-JH-l2yKxasDnMpsKAeTRPC_NvNS-d-1PTUmxkemL0oHSuAvwzehD2gNFa4]--></g></svg>