<?xml version="1.0" encoding="UTF-8" standalone="no"?><svg xmlns="http://www.w3.org/2000/svg" xmlns:xlink="http://www.w3.org/1999/xlink" contentStyleType="text/css" height="899px" preserveAspectRatio="none" style="width:2432px;height:899px;background:#FFFFFF;" version="1.1" viewBox="0 0 2432 899" width="2432px" zoomAndPan="magnify"><defs/><g><!--cluster BuildingCentreReceipt--><g id="cluster_BuildingCentreReceipt"><path d="M8.5,406 L184.5,406 A3.75,3.75 0 0 1 187,408.5 L194,428.2969 L2422.5,428.2969 A2.5,2.5 0 0 1 2425,430.7969 L2425,871.5 A2.5,2.5 0 0 1 2422.5,874 L8.5,874 A2.5,2.5 0 0 1 6,871.5 L6,408.5 A2.5,2.5 0 0 1 8.5,406 " fill="none" style="stroke:#000000;stroke-width:1.5;"/><line style="stroke:#000000;stroke-width:1.5;" x1="6" x2="194" y1="428.2969" y2="428.2969"/><text fill="#000000" font-family="sans-serif" font-size="14" font-weight="bold" lengthAdjust="spacing" textLength="175" x="10" y="420.9951">BuildingCentreReceipt</text></g><!--cluster java.lang--><g id="cluster_java.lang"><path d="M346.5,136.5 L416.5,136.5 A3.75,3.75 0 0 1 419,139 L426,158.7969 L523.5,158.7969 A2.5,2.5 0 0 1 526,161.2969 L526,249 A2.5,2.5 0 0 1 523.5,251.5 L346.5,251.5 A2.5,2.5 0 0 1 344,249 L344,139 A2.5,2.5 0 0 1 346.5,136.5 " fill="none" style="stroke:#000000;stroke-width:1.5;"/><line style="stroke:#000000;stroke-width:1.5;" x1="344" x2="426" y1="158.7969" y2="158.7969"/><text fill="#000000" font-family="sans-serif" font-size="14" font-weight="bold" lengthAdjust="spacing" textLength="69" x="348" y="151.4951">java.lang</text></g><!--cluster java.util--><g id="cluster_java.util"><path d="M1482.5,6 L1543.5,6 A3.75,3.75 0 0 1 1546,8.5 L1553,28.2969 L2189.5,28.2969 A2.5,2.5 0 0 1 2192,30.7969 L2192,379.5 A2.5,2.5 0 0 1 2189.5,382 L1482.5,382 A2.5,2.5 0 0 1 1480,379.5 L1480,8.5 A2.5,2.5 0 0 1 1482.5,6 " fill="none" style="stroke:#000000;stroke-width:1.5;"/><line style="stroke:#000000;stroke-width:1.5;" x1="1480" x2="1553" y1="28.2969" y2="28.2969"/><text fill="#000000" font-family="sans-serif" font-size="14" font-weight="bold" lengthAdjust="spacing" textLength="60" x="1484" y="20.9951">java.util</text></g><!--class BuildingCentreReceipt.BuildingCentreProductBase--><a href="BuildingCentreProductBase.html" target="_top" title="BuildingCentreProductBase.html" xlink:actuate="onRequest" xlink:href="BuildingCentreProductBase.html" xlink:show="new" xlink:title="BuildingCentreProductBase.html" xlink:type="simple"><g id="elem_BuildingCentreReceipt.BuildingCentreProductBase"><rect codeLine="3" fill="#F1F1F1" height="194.6719" id="BuildingCentreReceipt.BuildingCentreProductBase" rx="2.5" ry="2.5" style="stroke:#181818;stroke-width:0.5;" width="418" x="226" y="441"/><ellipse cx="336.25" cy="457" fill="#A9DCDF" rx="11" ry="11" style="stroke:#181818;stroke-width:1.0;"/><path d="M336.3594,452.3438 L335.2031,457.4219 L337.5313,457.4219 L336.3594,452.3438 Z M334.875,450.1094 L337.8594,450.1094 L341.2188,462.5 L338.7656,462.5 L338,459.4375 L334.7188,459.4375 L333.9688,462.5 L331.5313,462.5 L334.875,450.1094 Z " fill="#000000"/><text fill="#000000" font-family="sans-serif" font-size="14" font-style="italic" lengthAdjust="spacing" textLength="189" x="356.75" y="461.8467">BuildingCentreProductBase</text><line style="stroke:#181818;stroke-width:0.5;" x1="227" x2="643" y1="473" y2="473"/><polygon fill="none" points="237,481.6484,241,485.6484,237,489.6484,233,485.6484" style="stroke:#B38D22;stroke-width:1.0;"/><text fill="#000000" font-family="sans-serif" font-size="14" lengthAdjust="spacing" textLength="91" x="246" y="489.9951">price: double</text><polygon fill="none" points="237,497.9453,241,501.9453,237,505.9453,233,501.9453" style="stroke:#B38D22;stroke-width:1.0;"/><text fill="#000000" font-family="sans-serif" font-size="14" lengthAdjust="spacing" textLength="88" x="246" y="506.292">name: String</text><line style="stroke:#181818;stroke-width:0.5;" x1="227" x2="643" y1="513.5938" y2="513.5938"/><polygon fill="#4177AF" points="237,523.2422,233,529.2422,241,529.2422" style="stroke:#1963A0;stroke-width:1.0;"/><text fill="#000000" font-family="sans-serif" font-size="14" lengthAdjust="spacing" textLength="392" x="246" y="530.5889">BuildingCentreProductBase(BuildingCentreProductBase)</text><polygon fill="#4177AF" points="237,539.5391,233,545.5391,241,545.5391" style="stroke:#1963A0;stroke-width:1.0;"/><text fill="#000000" font-family="sans-serif" font-size="14" lengthAdjust="spacing" textLength="297" x="246" y="546.8857">BuildingCentreProductBase(String, double)</text><ellipse cx="237" cy="559.8359" fill="#84BE84" rx="3" ry="3" style="stroke:#038048;stroke-width:1.0;"/><text fill="#000000" font-family="sans-serif" font-size="14" lengthAdjust="spacing" textLength="122" x="246" y="563.1826">getName(): String</text><ellipse cx="237" cy="576.1328" fill="#84BE84" rx="3" ry="3" style="stroke:#038048;stroke-width:1.0;"/><text fill="#000000" font-family="sans-serif" font-size="14" font-style="italic" lengthAdjust="spacing" textLength="161" x="246" y="579.4795">calculatePrice(): double</text><ellipse cx="237" cy="592.4297" fill="#84BE84" rx="3" ry="3" style="stroke:#038048;stroke-width:1.0;"/><text fill="#000000" font-family="sans-serif" font-size="14" lengthAdjust="spacing" textLength="306" x="246" y="595.7764">compareTo(BuildingCentreProductBase): int</text><ellipse cx="237" cy="608.7266" fill="#84BE84" rx="3" ry="3" style="stroke:#038048;stroke-width:1.0;"/><text fill="#000000" font-family="sans-serif" font-size="14" lengthAdjust="spacing" textLength="174" x="246" y="612.0732">getPricePerUnit(): double</text><ellipse cx="237" cy="625.0234" fill="#84BE84" rx="3" ry="3" style="stroke:#038048;stroke-width:1.0;"/><text fill="#000000" font-family="sans-serif" font-size="14" lengthAdjust="spacing" textLength="292" x="246" y="628.3701">price(double): BuildingCentreProductBase</text></g></a><!--class BuildingCentreReceipt.ProductPricePerUnitComparator--><a href="ProductPricePerUnitComparator.html" target="_top" title="ProductPricePerUnitComparator.html" xlink:actuate="onRequest" xlink:href="ProductPricePerUnitComparator.html" xlink:show="new" xlink:title="ProductPricePerUnitComparator.html" xlink:type="simple"><g id="elem_BuildingCentreReceipt.ProductPricePerUnitComparator"><rect codeLine="15" fill="#F1F1F1" height="64.2969" id="BuildingCentreReceipt.ProductPricePerUnitComparator" rx="2.5" ry="2.5" style="stroke:#181818;stroke-width:0.5;" width="513" x="1895.5" y="506.5"/><ellipse cx="2038.25" cy="522.5" fill="#ADD1B2" rx="11" ry="11" style="stroke:#181818;stroke-width:1.0;"/><path d="M2041.2188,528.1406 Q2040.6406,528.4375 2040,528.5781 Q2039.3594,528.7344 2038.6563,528.7344 Q2036.1563,528.7344 2034.8281,527.0938 Q2033.5156,525.4375 2033.5156,522.3125 Q2033.5156,519.1875 2034.8281,517.5313 Q2036.1563,515.875 2038.6563,515.875 Q2039.3594,515.875 2040,516.0313 Q2040.6563,516.1875 2041.2188,516.4844 L2041.2188,519.2031 Q2040.5938,518.625 2040,518.3594 Q2039.4063,518.0781 2038.7813,518.0781 Q2037.4375,518.0781 2036.75,519.1563 Q2036.0625,520.2188 2036.0625,522.3125 Q2036.0625,524.4063 2036.75,525.4844 Q2037.4375,526.5469 2038.7813,526.5469 Q2039.4063,526.5469 2040,526.2813 Q2040.5938,526 2041.2188,525.4219 L2041.2188,528.1406 Z " fill="#000000"/><text fill="#000000" font-family="sans-serif" font-size="14" lengthAdjust="spacing" textLength="219" x="2058.75" y="527.3467">ProductPricePerUnitComparator</text><line style="stroke:#181818;stroke-width:0.5;" x1="1896.5" x2="2407.5" y1="538.5" y2="538.5"/><line style="stroke:#181818;stroke-width:0.5;" x1="1896.5" x2="2407.5" y1="546.5" y2="546.5"/><ellipse cx="1906.5" cy="560.1484" fill="#84BE84" rx="3" ry="3" style="stroke:#038048;stroke-width:1.0;"/><text fill="#000000" font-family="sans-serif" font-size="14" lengthAdjust="spacing" textLength="487" x="1915.5" y="563.4951">compare(BuildingCentreProductBase, BuildingCentreProductBase): int</text></g></a><!--class BuildingCentreReceipt.Tool--><a href="Tool.html" target="_top" title="Tool.html" xlink:actuate="onRequest" xlink:href="Tool.html" xlink:show="new" xlink:title="Tool.html" xlink:type="simple"><g id="elem_BuildingCentreReceipt.Tool"><rect codeLine="19" fill="#F1F1F1" height="129.4844" id="BuildingCentreReceipt.Tool" rx="2.5" ry="2.5" style="stroke:#181818;stroke-width:0.5;" width="246" x="726" y="712.5"/><ellipse cx="829.75" cy="728.5" fill="#ADD1B2" rx="11" ry="11" style="stroke:#181818;stroke-width:1.0;"/><path d="M832.7188,734.1406 Q832.1406,734.4375 831.5,734.5781 Q830.8594,734.7344 830.1563,734.7344 Q827.6563,734.7344 826.3281,733.0938 Q825.0156,731.4375 825.0156,728.3125 Q825.0156,725.1875 826.3281,723.5313 Q827.6563,721.875 830.1563,721.875 Q830.8594,721.875 831.5,722.0313 Q832.1563,722.1875 832.7188,722.4844 L832.7188,725.2031 Q832.0938,724.625 831.5,724.3594 Q830.9063,724.0781 830.2813,724.0781 Q828.9375,724.0781 828.25,725.1563 Q827.5625,726.2188 827.5625,728.3125 Q827.5625,730.4063 828.25,731.4844 Q828.9375,732.5469 830.2813,732.5469 Q830.9063,732.5469 831.5,732.2813 Q832.0938,732 832.7188,731.4219 L832.7188,734.1406 Z " fill="#000000"/><text fill="#000000" font-family="sans-serif" font-size="14" lengthAdjust="spacing" textLength="30" x="850.25" y="733.3467">Tool</text><line style="stroke:#181818;stroke-width:0.5;" x1="727" x2="971" y1="744.5" y2="744.5"/><ellipse cx="737" cy="758.1484" fill="none" rx="3" ry="3" style="stroke:#038048;stroke-width:1.0;"/><text fill="#000000" font-family="sans-serif" font-size="14" lengthAdjust="spacing" text-decoration="underline" textLength="220" x="746" y="761.4951">SHIPPING_COSTS_PER_ITEM: int</text><rect fill="none" height="6" style="stroke:#C82930;stroke-width:1.0;" width="6" x="734" y="771.4453"/><text fill="#000000" font-family="sans-serif" font-size="14" lengthAdjust="spacing" textLength="66" x="746" y="777.792">count: int</text><line style="stroke:#181818;stroke-width:0.5;" x1="727" x2="971" y1="785.0938" y2="785.0938"/><ellipse cx="737" cy="798.7422" fill="#84BE84" rx="3" ry="3" style="stroke:#038048;stroke-width:1.0;"/><text fill="#000000" font-family="sans-serif" font-size="14" lengthAdjust="spacing" textLength="161" x="746" y="802.0889">Tool(String, double, int)</text><ellipse cx="737" cy="815.0391" fill="#84BE84" rx="3" ry="3" style="stroke:#038048;stroke-width:1.0;"/><text fill="#000000" font-family="sans-serif" font-size="14" lengthAdjust="spacing" textLength="70" x="746" y="818.3857">Tool(Tool)</text><ellipse cx="737" cy="831.3359" fill="#84BE84" rx="3" ry="3" style="stroke:#038048;stroke-width:1.0;"/><text fill="#000000" font-family="sans-serif" font-size="14" lengthAdjust="spacing" textLength="162" x="746" y="834.6826">calculatePrice(): double</text></g></a><!--class BuildingCentreReceipt.Main--><a href="Main.html" target="_top" title="Main.html" xlink:actuate="onRequest" xlink:href="Main.html" xlink:show="new" xlink:title="Main.html" xlink:type="simple"><g id="elem_BuildingCentreReceipt.Main"><rect codeLine="27" fill="#F1F1F1" height="96.8906" id="BuildingCentreReceipt.Main" rx="2.5" ry="2.5" style="stroke:#181818;stroke-width:0.5;" width="443" x="869.5" y="490"/><ellipse cx="1070.75" cy="506" fill="#ADD1B2" rx="11" ry="11" style="stroke:#181818;stroke-width:1.0;"/><path d="M1073.7188,511.6406 Q1073.1406,511.9375 1072.5,512.0781 Q1071.8594,512.2344 1071.1563,512.2344 Q1068.6563,512.2344 1067.3281,510.5938 Q1066.0156,508.9375 1066.0156,505.8125 Q1066.0156,502.6875 1067.3281,501.0313 Q1068.6563,499.375 1071.1563,499.375 Q1071.8594,499.375 1072.5,499.5313 Q1073.1563,499.6875 1073.7188,499.9844 L1073.7188,502.7031 Q1073.0938,502.125 1072.5,501.8594 Q1071.9063,501.5781 1071.2813,501.5781 Q1069.9375,501.5781 1069.25,502.6563 Q1068.5625,503.7188 1068.5625,505.8125 Q1068.5625,507.9063 1069.25,508.9844 Q1069.9375,510.0469 1071.2813,510.0469 Q1071.9063,510.0469 1072.5,509.7813 Q1073.0938,509.5 1073.7188,508.9219 L1073.7188,511.6406 Z " fill="#000000"/><text fill="#000000" font-family="sans-serif" font-size="14" lengthAdjust="spacing" textLength="32" x="1091.25" y="510.8467">Main</text><line style="stroke:#181818;stroke-width:0.5;" x1="870.5" x2="1311.5" y1="522" y2="522"/><line style="stroke:#181818;stroke-width:0.5;" x1="870.5" x2="1311.5" y1="530" y2="530"/><ellipse cx="880.5" cy="543.6484" fill="#84BE84" rx="3" ry="3" style="stroke:#038048;stroke-width:1.0;"/><text fill="#000000" font-family="sans-serif" font-size="14" lengthAdjust="spacing" text-decoration="underline" textLength="130" x="889.5" y="546.9951">main(String[]): void</text><rect fill="#F24D5C" height="6" style="stroke:#C82930;stroke-width:1.0;" width="6" x="877.5" y="556.9453"/><text fill="#000000" font-family="sans-serif" font-size="14" lengthAdjust="spacing" text-decoration="underline" textLength="417" x="889.5" y="563.292">printReceipt(List&lt;BuildingCentreProductBase&gt;, String): void</text><rect fill="#F24D5C" height="6" style="stroke:#C82930;stroke-width:1.0;" width="6" x="877.5" y="573.2422"/><text fill="#000000" font-family="sans-serif" font-size="14" lengthAdjust="spacing" text-decoration="underline" textLength="375" x="889.5" y="579.5889">receiptText(List&lt;BuildingCentreProductBase&gt;): String</text></g></a><!--class BuildingCentreReceipt.Material--><a href="Material.html" target="_top" title="Material.html" xlink:actuate="onRequest" xlink:href="Material.html" xlink:show="new" xlink:title="Material.html" xlink:type="simple"><g id="elem_BuildingCentreReceipt.Material"><rect codeLine="33" fill="#F1F1F1" height="162.0781" id="BuildingCentreReceipt.Material" rx="2.5" ry="2.5" style="stroke:#181818;stroke-width:0.5;" width="279" x="1007.5" y="696"/><ellipse cx="1116.25" cy="712" fill="#ADD1B2" rx="11" ry="11" style="stroke:#181818;stroke-width:1.0;"/><path d="M1119.2188,717.6406 Q1118.6406,717.9375 1118,718.0781 Q1117.3594,718.2344 1116.6563,718.2344 Q1114.1563,718.2344 1112.8281,716.5938 Q1111.5156,714.9375 1111.5156,711.8125 Q1111.5156,708.6875 1112.8281,707.0313 Q1114.1563,705.375 1116.6563,705.375 Q1117.3594,705.375 1118,705.5313 Q1118.6563,705.6875 1119.2188,705.9844 L1119.2188,708.7031 Q1118.5938,708.125 1118,707.8594 Q1117.4063,707.5781 1116.7813,707.5781 Q1115.4375,707.5781 1114.75,708.6563 Q1114.0625,709.7188 1114.0625,711.8125 Q1114.0625,713.9063 1114.75,714.9844 Q1115.4375,716.0469 1116.7813,716.0469 Q1117.4063,716.0469 1118,715.7813 Q1118.5938,715.5 1119.2188,714.9219 L1119.2188,717.6406 Z " fill="#000000"/><text fill="#000000" font-family="sans-serif" font-size="14" lengthAdjust="spacing" textLength="53" x="1136.75" y="716.8467">Material</text><line style="stroke:#181818;stroke-width:0.5;" x1="1008.5" x2="1285.5" y1="728" y2="728"/><ellipse cx="1018.5" cy="741.6484" fill="none" rx="3" ry="3" style="stroke:#038048;stroke-width:1.0;"/><text fill="#000000" font-family="sans-serif" font-size="14" lengthAdjust="spacing" text-decoration="underline" textLength="253" x="1027.5" y="744.9951">MAXIMUM_AMOUNT_TO_DELIVER: int</text><rect fill="none" height="6" style="stroke:#C82930;stroke-width:1.0;" width="6" x="1015.5" y="754.9453"/><text fill="#000000" font-family="sans-serif" font-size="14" lengthAdjust="spacing" textLength="166" x="1027.5" y="761.292">selfFetchStorage: String</text><rect fill="none" height="6" style="stroke:#C82930;stroke-width:1.0;" width="6" x="1015.5" y="771.2422"/><text fill="#000000" font-family="sans-serif" font-size="14" lengthAdjust="spacing" textLength="66" x="1027.5" y="777.5889">count: int</text><line style="stroke:#181818;stroke-width:0.5;" x1="1008.5" x2="1285.5" y1="784.8906" y2="784.8906"/><ellipse cx="1018.5" cy="798.5391" fill="#84BE84" rx="3" ry="3" style="stroke:#038048;stroke-width:1.0;"/><text fill="#000000" font-family="sans-serif" font-size="14" lengthAdjust="spacing" textLength="232" x="1027.5" y="801.8857">Material(String, String, double, int)</text><ellipse cx="1018.5" cy="814.8359" fill="#84BE84" rx="3" ry="3" style="stroke:#038048;stroke-width:1.0;"/><text fill="#000000" font-family="sans-serif" font-size="14" lengthAdjust="spacing" textLength="116" x="1027.5" y="818.1826">Material(Material)</text><ellipse cx="1018.5" cy="831.1328" fill="#84BE84" rx="3" ry="3" style="stroke:#038048;stroke-width:1.0;"/><text fill="#000000" font-family="sans-serif" font-size="14" lengthAdjust="spacing" textLength="129" x="1027.5" y="834.4795">fetchFrom(): String</text><ellipse cx="1018.5" cy="847.4297" fill="#84BE84" rx="3" ry="3" style="stroke:#038048;stroke-width:1.0;"/><text fill="#000000" font-family="sans-serif" font-size="14" lengthAdjust="spacing" textLength="162" x="1027.5" y="850.7764">calculatePrice(): double</text></g></a><!--class BuildingCentreReceipt.SelfFetchable--><a href="SelfFetchable.html" target="_top" title="SelfFetchable.html" xlink:actuate="onRequest" xlink:href="SelfFetchable.html" xlink:show="new" xlink:title="SelfFetchable.html" xlink:type="simple"><g id="elem_BuildingCentreReceipt.SelfFetchable"><rect codeLine="43" fill="#F1F1F1" height="64.2969" id="BuildingCentreReceipt.SelfFetchable" rx="2.5" ry="2.5" style="stroke:#181818;stroke-width:0.5;" width="155" x="679.5" y="506.5"/><ellipse cx="708" cy="522.5" fill="#B4A7E5" rx="11" ry="11" style="stroke:#181818;stroke-width:1.0;"/><path d="M703.9219,518.2656 L703.9219,516.1094 L711.3125,516.1094 L711.3125,518.2656 L708.8438,518.2656 L708.8438,526.3438 L711.3125,526.3438 L711.3125,528.5 L703.9219,528.5 L703.9219,526.3438 L706.3906,526.3438 L706.3906,518.2656 L703.9219,518.2656 Z " fill="#000000"/><text fill="#000000" font-family="sans-serif" font-size="14" font-style="italic" lengthAdjust="spacing" textLength="93" x="725" y="527.3467">SelfFetchable</text><line style="stroke:#181818;stroke-width:0.5;" x1="680.5" x2="833.5" y1="538.5" y2="538.5"/><line style="stroke:#181818;stroke-width:0.5;" x1="680.5" x2="833.5" y1="546.5" y2="546.5"/><ellipse cx="690.5" cy="560.1484" fill="#84BE84" rx="3" ry="3" style="stroke:#038048;stroke-width:1.0;"/><text fill="#000000" font-family="sans-serif" font-size="14" font-style="italic" lengthAdjust="spacing" textLength="129" x="699.5" y="563.4951">fetchFrom(): String</text></g></a><!--class BuildingCentreReceipt.FullTextMatcher--><a href="FullTextMatcher.html" target="_top" title="FullTextMatcher.html" xlink:actuate="onRequest" xlink:href="FullTextMatcher.html" xlink:show="new" xlink:title="FullTextMatcher.html" xlink:type="simple"><g id="elem_BuildingCentreReceipt.FullTextMatcher"><rect codeLine="47" fill="#F1F1F1" height="96.8906" id="BuildingCentreReceipt.FullTextMatcher" rx="2.5" ry="2.5" style="stroke:#181818;stroke-width:0.5;" width="352" x="22" y="728.5"/><ellipse cx="139.25" cy="744.5" fill="#ADD1B2" rx="11" ry="11" style="stroke:#181818;stroke-width:1.0;"/><path d="M142.2188,750.1406 Q141.6406,750.4375 141,750.5781 Q140.3594,750.7344 139.6563,750.7344 Q137.1563,750.7344 135.8281,749.0938 Q134.5156,747.4375 134.5156,744.3125 Q134.5156,741.1875 135.8281,739.5313 Q137.1563,737.875 139.6563,737.875 Q140.3594,737.875 141,738.0313 Q141.6563,738.1875 142.2188,738.4844 L142.2188,741.2031 Q141.5938,740.625 141,740.3594 Q140.4063,740.0781 139.7813,740.0781 Q138.4375,740.0781 137.75,741.1563 Q137.0625,742.2188 137.0625,744.3125 Q137.0625,746.4063 137.75,747.4844 Q138.4375,748.5469 139.7813,748.5469 Q140.4063,748.5469 141,748.2813 Q141.5938,748 142.2188,747.4219 L142.2188,750.1406 Z " fill="#000000"/><text fill="#000000" font-family="sans-serif" font-size="14" lengthAdjust="spacing" textLength="109" x="159.75" y="749.3467">FullTextMatcher</text><line style="stroke:#181818;stroke-width:0.5;" x1="23" x2="373" y1="760.5" y2="760.5"/><rect fill="none" height="6" style="stroke:#C82930;stroke-width:1.0;" width="6" x="30" y="771.1484"/><text fill="#000000" font-family="sans-serif" font-size="14" lengthAdjust="spacing" textLength="99" x="42" y="777.4951">pattern: String</text><line style="stroke:#181818;stroke-width:0.5;" x1="23" x2="373" y1="784.7969" y2="784.7969"/><ellipse cx="33" cy="798.4453" fill="#84BE84" rx="3" ry="3" style="stroke:#038048;stroke-width:1.0;"/><text fill="#000000" font-family="sans-serif" font-size="14" lengthAdjust="spacing" textLength="159" x="42" y="801.792">FullTextMatcher(String)</text><ellipse cx="33" cy="814.7422" fill="#84BE84" rx="3" ry="3" style="stroke:#038048;stroke-width:1.0;"/><text fill="#000000" font-family="sans-serif" font-size="14" lengthAdjust="spacing" textLength="326" x="42" y="818.0889">matches(BuildingCentreProductBase): boolean</text></g></a><!--class BuildingCentreReceipt.CraftsmanSupport--><a href="CraftsmanSupport.html" target="_top" title="CraftsmanSupport.html" xlink:actuate="onRequest" xlink:href="CraftsmanSupport.html" xlink:show="new" xlink:title="CraftsmanSupport.html" xlink:type="simple"><g id="elem_BuildingCentreReceipt.CraftsmanSupport"><rect codeLine="53" fill="#F1F1F1" height="113.1875" id="BuildingCentreReceipt.CraftsmanSupport" rx="2.5" ry="2.5" style="stroke:#181818;stroke-width:0.5;" width="282" x="409" y="720.5"/><ellipse cx="483.25" cy="736.5" fill="#ADD1B2" rx="11" ry="11" style="stroke:#181818;stroke-width:1.0;"/><path d="M486.2188,742.1406 Q485.6406,742.4375 485,742.5781 Q484.3594,742.7344 483.6563,742.7344 Q481.1563,742.7344 479.8281,741.0938 Q478.5156,739.4375 478.5156,736.3125 Q478.5156,733.1875 479.8281,731.5313 Q481.1563,729.875 483.6563,729.875 Q484.3594,729.875 485,730.0313 Q485.6563,730.1875 486.2188,730.4844 L486.2188,733.2031 Q485.5938,732.625 485,732.3594 Q484.4063,732.0781 483.7813,732.0781 Q482.4375,732.0781 481.75,733.1563 Q481.0625,734.2188 481.0625,736.3125 Q481.0625,738.4063 481.75,739.4844 Q482.4375,740.5469 483.7813,740.5469 Q484.4063,740.5469 485,740.2813 Q485.5938,740 486.2188,739.4219 L486.2188,742.1406 Z " fill="#000000"/><text fill="#000000" font-family="sans-serif" font-size="14" lengthAdjust="spacing" textLength="125" x="503.75" y="741.3467">CraftsmanSupport</text><line style="stroke:#181818;stroke-width:0.5;" x1="410" x2="690" y1="752.5" y2="752.5"/><rect fill="none" height="6" style="stroke:#C82930;stroke-width:1.0;" width="6" x="417" y="763.1484"/><text fill="#000000" font-family="sans-serif" font-size="14" lengthAdjust="spacing" textLength="66" x="429" y="769.4951">hours: int</text><line style="stroke:#181818;stroke-width:0.5;" x1="410" x2="690" y1="776.7969" y2="776.7969"/><ellipse cx="420" cy="790.4453" fill="#84BE84" rx="3" ry="3" style="stroke:#038048;stroke-width:1.0;"/><text fill="#000000" font-family="sans-serif" font-size="14" lengthAdjust="spacing" textLength="256" x="429" y="793.792">CraftsmanSupport(String, int, double)</text><rect fill="#F24D5C" height="6" style="stroke:#C82930;stroke-width:1.0;" width="6" x="417" y="803.7422"/><text fill="#000000" font-family="sans-serif" font-size="14" lengthAdjust="spacing" textLength="127" x="429" y="810.0889">setHours(int): void</text><ellipse cx="420" cy="823.0391" fill="#84BE84" rx="3" ry="3" style="stroke:#038048;stroke-width:1.0;"/><text fill="#000000" font-family="sans-serif" font-size="14" lengthAdjust="spacing" textLength="162" x="429" y="826.3857">calculatePrice(): double</text></g></a><!--class BuildingCentreReceipt.ProductNameComparator--><a href="ProductNameComparator.html" target="_top" title="ProductNameComparator.html" xlink:actuate="onRequest" xlink:href="ProductNameComparator.html" xlink:show="new" xlink:title="ProductNameComparator.html" xlink:type="simple"><g id="elem_BuildingCentreReceipt.ProductNameComparator"><rect codeLine="60" fill="#F1F1F1" height="64.2969" id="BuildingCentreReceipt.ProductNameComparator" rx="2.5" ry="2.5" style="stroke:#181818;stroke-width:0.5;" width="513" x="1347.5" y="506.5"/><ellipse cx="1512.25" cy="522.5" fill="#ADD1B2" rx="11" ry="11" style="stroke:#181818;stroke-width:1.0;"/><path d="M1515.2188,528.1406 Q1514.6406,528.4375 1514,528.5781 Q1513.3594,528.7344 1512.6563,528.7344 Q1510.1563,528.7344 1508.8281,527.0938 Q1507.5156,525.4375 1507.5156,522.3125 Q1507.5156,519.1875 1508.8281,517.5313 Q1510.1563,515.875 1512.6563,515.875 Q1513.3594,515.875 1514,516.0313 Q1514.6563,516.1875 1515.2188,516.4844 L1515.2188,519.2031 Q1514.5938,518.625 1514,518.3594 Q1513.4063,518.0781 1512.7813,518.0781 Q1511.4375,518.0781 1510.75,519.1563 Q1510.0625,520.2188 1510.0625,522.3125 Q1510.0625,524.4063 1510.75,525.4844 Q1511.4375,526.5469 1512.7813,526.5469 Q1513.4063,526.5469 1514,526.2813 Q1514.5938,526 1515.2188,525.4219 L1515.2188,528.1406 Z " fill="#000000"/><text fill="#000000" font-family="sans-serif" font-size="14" lengthAdjust="spacing" textLength="175" x="1532.75" y="527.3467">ProductNameComparator</text><line style="stroke:#181818;stroke-width:0.5;" x1="1348.5" x2="1859.5" y1="538.5" y2="538.5"/><line style="stroke:#181818;stroke-width:0.5;" x1="1348.5" x2="1859.5" y1="546.5" y2="546.5"/><ellipse cx="1358.5" cy="560.1484" fill="#84BE84" rx="3" ry="3" style="stroke:#038048;stroke-width:1.0;"/><text fill="#000000" font-family="sans-serif" font-size="14" lengthAdjust="spacing" textLength="487" x="1367.5" y="563.4951">compare(BuildingCentreProductBase, BuildingCentreProductBase): int</text></g></a><!--class BuildingCentreReceipt.Matcher--><a href="Matcher.html" target="_top" title="Matcher.html" xlink:actuate="onRequest" xlink:href="Matcher.html" xlink:show="new" xlink:title="Matcher.html" xlink:type="simple"><g id="elem_BuildingCentreReceipt.Matcher"><rect codeLine="64" fill="#F1F1F1" height="64.2969" id="BuildingCentreReceipt.Matcher" rx="2.5" ry="2.5" style="stroke:#181818;stroke-width:0.5;" width="169" x="21.5" y="506.5"/><ellipse cx="68.25" cy="522.5" fill="#B4A7E5" rx="11" ry="11" style="stroke:#181818;stroke-width:1.0;"/><path d="M64.1719,518.2656 L64.1719,516.1094 L71.5625,516.1094 L71.5625,518.2656 L69.0938,518.2656 L69.0938,526.3438 L71.5625,526.3438 L71.5625,528.5 L64.1719,528.5 L64.1719,526.3438 L66.6406,526.3438 L66.6406,518.2656 L64.1719,518.2656 Z " fill="#000000"/><text fill="#000000" font-family="sans-serif" font-size="14" font-style="italic" lengthAdjust="spacing" textLength="56" x="88.75" y="527.3467">Matcher</text><rect fill="#FFFFFF" height="15.9688" style="stroke:#181818;stroke-width:1.0;stroke-dasharray:2.0,2.0;" width="9" x="184.5" y="503.5"/><text fill="#000000" font-family="sans-serif" font-size="12" font-style="italic" lengthAdjust="spacing" textLength="7" x="185.5" y="515.6387">T</text><line style="stroke:#181818;stroke-width:0.5;" x1="22.5" x2="189.5" y1="538.5" y2="538.5"/><line style="stroke:#181818;stroke-width:0.5;" x1="22.5" x2="189.5" y1="546.5" y2="546.5"/><ellipse cx="32.5" cy="560.1484" fill="#84BE84" rx="3" ry="3" style="stroke:#038048;stroke-width:1.0;"/><text fill="#000000" font-family="sans-serif" font-size="14" font-style="italic" lengthAdjust="spacing" textLength="143" x="41.5" y="563.4951">matches(T): boolean</text></g></a><!--class java.lang.Comparable--><g id="elem_java.lang.Comparable"><rect codeLine="79" fill="#F1F1F1" height="64.2969" id="java.lang.Comparable" rx="2.5" ry="2.5" style="stroke:#181818;stroke-width:0.5;" width="150" x="360" y="171.5"/><ellipse cx="385.8" cy="187.5" fill="#B4A7E5" rx="11" ry="11" style="stroke:#181818;stroke-width:1.0;"/><path d="M381.7219,183.2656 L381.7219,181.1094 L389.1125,181.1094 L389.1125,183.2656 L386.6438,183.2656 L386.6438,191.3438 L389.1125,191.3438 L389.1125,193.5 L381.7219,193.5 L381.7219,191.3438 L384.1906,191.3438 L384.1906,183.2656 L381.7219,183.2656 Z " fill="#000000"/><text fill="#000000" font-family="sans-serif" font-size="14" font-style="italic" lengthAdjust="spacing" textLength="83" x="402.2" y="192.3467">Comparable</text><rect fill="#FFFFFF" height="15.9688" style="stroke:#181818;stroke-width:1.0;stroke-dasharray:2.0,2.0;" width="9" x="504" y="168.5"/><text fill="#000000" font-family="sans-serif" font-size="12" font-style="italic" lengthAdjust="spacing" textLength="7" x="505" y="180.6387">T</text><line style="stroke:#181818;stroke-width:0.5;" x1="361" x2="509" y1="203.5" y2="203.5"/><line style="stroke:#181818;stroke-width:0.5;" x1="361" x2="509" y1="211.5" y2="211.5"/><ellipse cx="371" cy="225.1484" fill="#84BE84" rx="3" ry="3" style="stroke:#038048;stroke-width:1.0;"/><text fill="#000000" font-family="sans-serif" font-size="14" font-style="italic" lengthAdjust="spacing" textLength="124" x="380" y="228.4951">compareTo(T): int</text></g><!--class java.util.Comparator--><g id="elem_java.util.Comparator"><rect codeLine="85" fill="#F1F1F1" height="325.0469" id="java.util.Comparator" rx="2.5" ry="2.5" style="stroke:#181818;stroke-width:0.5;" width="681" x="1495.5" y="41"/><ellipse cx="1785.75" cy="57" fill="#B4A7E5" rx="11" ry="11" style="stroke:#181818;stroke-width:1.0;"/><path d="M1781.6719,52.7656 L1781.6719,50.6094 L1789.0625,50.6094 L1789.0625,52.7656 L1786.5938,52.7656 L1786.5938,60.8438 L1789.0625,60.8438 L1789.0625,63 L1781.6719,63 L1781.6719,60.8438 L1784.1406,60.8438 L1784.1406,52.7656 L1781.6719,52.7656 Z " fill="#000000"/><text fill="#000000" font-family="sans-serif" font-size="14" font-style="italic" lengthAdjust="spacing" textLength="81" x="1806.25" y="61.8467">Comparator</text><rect fill="#FFFFFF" height="15.9688" style="stroke:#181818;stroke-width:1.0;stroke-dasharray:2.0,2.0;" width="9" x="2170.5" y="38"/><text fill="#000000" font-family="sans-serif" font-size="12" font-style="italic" lengthAdjust="spacing" textLength="7" x="2171.5" y="50.1387">T</text><line style="stroke:#181818;stroke-width:0.5;" x1="1496.5" x2="2175.5" y1="73" y2="73"/><line style="stroke:#181818;stroke-width:0.5;" x1="1496.5" x2="2175.5" y1="81" y2="81"/><ellipse cx="1506.5" cy="94.6484" fill="#84BE84" rx="3" ry="3" style="stroke:#038048;stroke-width:1.0;"/><text fill="#000000" font-family="sans-serif" font-size="14" font-style="italic" lengthAdjust="spacing" textLength="123" x="1515.5" y="97.9951">compare(T, T): int</text><ellipse cx="1506.5" cy="110.9453" fill="#84BE84" rx="3" ry="3" style="stroke:#038048;stroke-width:1.0;"/><text fill="#000000" font-family="sans-serif" font-size="14" lengthAdjust="spacing" textLength="194" x="1515.5" y="114.292">reversed(): Comparator&lt;T&gt;</text><ellipse cx="1506.5" cy="127.2422" fill="#84BE84" rx="3" ry="3" style="stroke:#038048;stroke-width:1.0;"/><text fill="#000000" font-family="sans-serif" font-size="14" lengthAdjust="spacing" textLength="409" x="1515.5" y="130.5889">thenComparing(Comparator&lt;? super T&gt;): Comparator&lt;T&gt;</text><ellipse cx="1506.5" cy="143.5391" fill="#84BE84" rx="3" ry="3" style="stroke:#038048;stroke-width:1.0;"/><text fill="#000000" font-family="sans-serif" font-size="14" lengthAdjust="spacing" textLength="655" x="1515.5" y="146.8857">thenComparing(Function&lt;? super T, ? extends U&gt;, Comparator&lt;? super U&gt;): Comparator&lt;T&gt;</text><ellipse cx="1506.5" cy="159.8359" fill="#84BE84" rx="3" ry="3" style="stroke:#038048;stroke-width:1.0;"/><text fill="#000000" font-family="sans-serif" font-size="14" lengthAdjust="spacing" textLength="639" x="1515.5" y="163.1826">thenComparing(Function&lt;? super T, ? extends Comparable&lt;? super U&gt;&gt;): Comparator&lt;T&gt;</text><ellipse cx="1506.5" cy="176.1328" fill="#84BE84" rx="3" ry="3" style="stroke:#038048;stroke-width:1.0;"/><text fill="#000000" font-family="sans-serif" font-size="14" lengthAdjust="spacing" textLength="440" x="1515.5" y="179.4795">thenComparingInt(ToIntFunction&lt;? super T&gt;): Comparator&lt;T&gt;</text><ellipse cx="1506.5" cy="192.4297" fill="#84BE84" rx="3" ry="3" style="stroke:#038048;stroke-width:1.0;"/><text fill="#000000" font-family="sans-serif" font-size="14" lengthAdjust="spacing" textLength="474" x="1515.5" y="195.7764">thenComparingLong(ToLongFunction&lt;? super T&gt;): Comparator&lt;T&gt;</text><ellipse cx="1506.5" cy="208.7266" fill="#84BE84" rx="3" ry="3" style="stroke:#038048;stroke-width:1.0;"/><text fill="#000000" font-family="sans-serif" font-size="14" lengthAdjust="spacing" textLength="506" x="1515.5" y="212.0732">thenComparingDouble(ToDoubleFunction&lt;? super T&gt;): Comparator&lt;T&gt;</text><ellipse cx="1506.5" cy="225.0234" fill="#84BE84" rx="3" ry="3" style="stroke:#038048;stroke-width:1.0;"/><text fill="#000000" font-family="sans-serif" font-size="14" lengthAdjust="spacing" text-decoration="underline" textLength="459" x="1515.5" y="228.3701">reverseOrder(): Comparator&lt;T extends Comparable&lt;? super T&gt;&gt;</text><ellipse cx="1506.5" cy="241.3203" fill="#84BE84" rx="3" ry="3" style="stroke:#038048;stroke-width:1.0;"/><text fill="#000000" font-family="sans-serif" font-size="14" lengthAdjust="spacing" text-decoration="underline" textLength="454" x="1515.5" y="244.667">naturalOrder(): Comparator&lt;T extends Comparable&lt;? super T&gt;&gt;</text><ellipse cx="1506.5" cy="257.6172" fill="#84BE84" rx="3" ry="3" style="stroke:#038048;stroke-width:1.0;"/><text fill="#000000" font-family="sans-serif" font-size="14" lengthAdjust="spacing" text-decoration="underline" textLength="363" x="1515.5" y="260.9639">nullsFirst(Comparator&lt;? super T&gt;): Comparator&lt;T&gt;</text><ellipse cx="1506.5" cy="273.9141" fill="#84BE84" rx="3" ry="3" style="stroke:#038048;stroke-width:1.0;"/><text fill="#000000" font-family="sans-serif" font-size="14" lengthAdjust="spacing" text-decoration="underline" textLength="362" x="1515.5" y="277.2607">nullsLast(Comparator&lt;? super T&gt;): Comparator&lt;T&gt;</text><ellipse cx="1506.5" cy="290.2109" fill="#84BE84" rx="3" ry="3" style="stroke:#038048;stroke-width:1.0;"/><text fill="#000000" font-family="sans-serif" font-size="14" lengthAdjust="spacing" text-decoration="underline" textLength="621" x="1515.5" y="293.5576">comparing(Function&lt;? super T, ? extends U&gt;, Comparator&lt;? super U&gt;): Comparator&lt;T&gt;</text><ellipse cx="1506.5" cy="306.5078" fill="#84BE84" rx="3" ry="3" style="stroke:#038048;stroke-width:1.0;"/><text fill="#000000" font-family="sans-serif" font-size="14" lengthAdjust="spacing" text-decoration="underline" textLength="605" x="1515.5" y="309.8545">comparing(Function&lt;? super T, ? extends Comparable&lt;? super U&gt;&gt;): Comparator&lt;T&gt;</text><ellipse cx="1506.5" cy="322.8047" fill="#84BE84" rx="3" ry="3" style="stroke:#038048;stroke-width:1.0;"/><text fill="#000000" font-family="sans-serif" font-size="14" lengthAdjust="spacing" text-decoration="underline" textLength="406" x="1515.5" y="326.1514">comparingInt(ToIntFunction&lt;? super T&gt;): Comparator&lt;T&gt;</text><ellipse cx="1506.5" cy="339.1016" fill="#84BE84" rx="3" ry="3" style="stroke:#038048;stroke-width:1.0;"/><text fill="#000000" font-family="sans-serif" font-size="14" lengthAdjust="spacing" text-decoration="underline" textLength="440" x="1515.5" y="342.4482">comparingLong(ToLongFunction&lt;? super T&gt;): Comparator&lt;T&gt;</text><ellipse cx="1506.5" cy="355.3984" fill="#84BE84" rx="3" ry="3" style="stroke:#038048;stroke-width:1.0;"/><text fill="#000000" font-family="sans-serif" font-size="14" lengthAdjust="spacing" text-decoration="underline" textLength="472" x="1515.5" y="358.7451">comparingDouble(ToDoubleFunction&lt;? super T&gt;): Comparator&lt;T&gt;</text></g><!--reverse link java.lang.Comparable to BuildingCentreReceipt.BuildingCentreProductBase--><g id="link_java.lang.Comparable_BuildingCentreReceipt.BuildingCentreProductBase"><path codeLine="68" d="M435,255.79 C435,304.89 435,380.24 435,440.65 " fill="none" id="java.lang.Comparable-backto-BuildingCentreReceipt.BuildingCentreProductBase" style="stroke:#181818;stroke-width:1.0;stroke-dasharray:7.0,7.0;"/><polygon fill="none" points="428,255.53,435,235.53,442,255.53,428,255.53" style="stroke:#181818;stroke-width:1.0;"/></g><!--reverse link java.util.Comparator to BuildingCentreReceipt.ProductPricePerUnitComparator--><g id="link_java.util.Comparator_BuildingCentreReceipt.ProductPricePerUnitComparator"><path codeLine="69" d="M2003.32,380.82 C2049.25,429.22 2094.13,476.51 2122.35,506.26 " fill="none" id="java.util.Comparator-backto-BuildingCentreReceipt.ProductPricePerUnitComparator" style="stroke:#181818;stroke-width:1.0;stroke-dasharray:7.0,7.0;"/><polygon fill="none" points="1998.06,385.45,1989.37,366.12,2008.22,375.81,1998.06,385.45" style="stroke:#181818;stroke-width:1.0;"/></g><!--reverse link BuildingCentreReceipt.BuildingCentreProductBase to BuildingCentreReceipt.Tool--><g id="link_BuildingCentreReceipt.BuildingCentreProductBase_BuildingCentreReceipt.Tool"><path codeLine="70" d="M621.77,646.17 C650.97,662.85 680.8,679.89 709,696 C718.36,701.35 728.07,706.89 737.81,712.46 " fill="none" id="BuildingCentreReceipt.BuildingCentreProductBase-backto-BuildingCentreReceipt.Tool" style="stroke:#181818;stroke-width:1.0;"/><polygon fill="none" points="618.08,652.13,604.19,636.13,625.03,639.97,618.08,652.13" style="stroke:#181818;stroke-width:1.0;"/></g><!--reverse link BuildingCentreReceipt.BuildingCentreProductBase to BuildingCentreReceipt.Material--><g id="link_BuildingCentreReceipt.BuildingCentreProductBase_BuildingCentreReceipt.Material"><path codeLine="71" d="M663.58,636.02 C807.95,676.19 855.51,650.52 990,696 C995.65,697.91 1001.35,699.99 1007.06,702.21 " fill="none" id="BuildingCentreReceipt.BuildingCentreProductBase-backto-BuildingCentreReceipt.Material" style="stroke:#181818;stroke-width:1.0;"/><polygon fill="none" points="661.28,642.64,644.02,630.34,665.18,629.19,661.28,642.64" style="stroke:#181818;stroke-width:1.0;"/></g><!--reverse link BuildingCentreReceipt.SelfFetchable to BuildingCentreReceipt.Material--><g id="link_BuildingCentreReceipt.SelfFetchable_BuildingCentreReceipt.Material"><path codeLine="72" d="M795.73,585.82 C811.85,603.13 831.57,621.97 852,636 C907.13,673.86 929.51,667.47 990,696 C995.67,698.68 1001.44,701.43 1007.26,704.25 " fill="none" id="BuildingCentreReceipt.SelfFetchable-backto-BuildingCentreReceipt.Material" style="stroke:#181818;stroke-width:1.0;stroke-dasharray:7.0,7.0;"/><polygon fill="none" points="790.44,590.41,782.29,570.85,800.86,581.06,790.44,590.41" style="stroke:#181818;stroke-width:1.0;"/></g><!--reverse link BuildingCentreReceipt.Matcher to BuildingCentreReceipt.FullTextMatcher--><g id="link_BuildingCentreReceipt.Matcher_BuildingCentreReceipt.FullTextMatcher"><path codeLine="73" d="M125.56,589.77 C141.45,630.62 163.71,687.86 179.35,728.07 " fill="none" id="BuildingCentreReceipt.Matcher-backto-BuildingCentreReceipt.FullTextMatcher" style="stroke:#181818;stroke-width:1.0;stroke-dasharray:7.0,7.0;"/><polygon fill="none" points="118.94,592.08,118.22,570.91,131.99,587.01,118.94,592.08" style="stroke:#181818;stroke-width:1.0;"/></g><!--reverse link BuildingCentreReceipt.BuildingCentreProductBase to BuildingCentreReceipt.CraftsmanSupport--><g id="link_BuildingCentreReceipt.BuildingCentreProductBase_BuildingCentreReceipt.CraftsmanSupport"><path codeLine="74" d="M490.7,654.05 C501.95,677.18 513.28,700.49 522.99,720.46 " fill="none" id="BuildingCentreReceipt.BuildingCentreProductBase-backto-BuildingCentreReceipt.CraftsmanSupport" style="stroke:#181818;stroke-width:1.0;"/><polygon fill="none" points="484.39,657.08,481.94,636.03,496.98,650.96,484.39,657.08" style="stroke:#181818;stroke-width:1.0;"/></g><!--reverse link java.util.Comparator to BuildingCentreReceipt.ProductNameComparator--><g id="link_java.util.Comparator_BuildingCentreReceipt.ProductNameComparator"><path codeLine="75" d="M1711.86,382.69 C1678.59,430.44 1646.22,476.9 1625.77,506.26 " fill="none" id="java.util.Comparator-backto-BuildingCentreReceipt.ProductNameComparator" style="stroke:#181818;stroke-width:1.0;stroke-dasharray:7.0,7.0;"/><polygon fill="none" points="1706.22,378.53,1723.4,366.12,1717.71,386.53,1706.22,378.53" style="stroke:#181818;stroke-width:1.0;"/></g><text fill="#888888" font-family="sans-serif" font-size="10" lengthAdjust="spacing" textLength="186" x="1116" y="889.2822">UMLDoclet 2.1.0, PlantUML 1.2022.14</text><!--SRC=[lLPRRzem57xlhx0qJGegHDiU4Q9gAQn8K509qwIgGguna2dOo7QgIMttstSS4dApmwqR3mJYu-zSlkyS6o6465vJkS64eflG3-O-MtOeKu8-K4BzZKAl5nSe_k1dgGGc2f40Ircm7mi-3ucwmPAYnqVhchjIw-3f2M1HvlDf8tn2csZEm-U0vfTqW4qqKGBWSYj_h4uSwqhjK8IjlteSKNxRvPAgUuZAgHdZUatgz8uk2Gv86605s92Wtc18yPBmzGOBwl6Am9l8PweKHWGxfcBAV6L3Zshhn8aqxRJjThsdb6-PZesopZfHo5Xn0MnNhfiPJtAsPrn7XnQZ5A_7UG1XwOVP-wjKMFa429hSzSVZ_lttMMSqyIQpSVTXrlUwmtAr6uI7J1bOq5uASgbhgvh1J7yLtkzLI2cx8VOPPASV-x9RWqqSs-CJGBzmVsusRO1Ac8gRtXduKhMivM_NOzbN8uejc4T_xmKiDv8XQqM5ZuCey-tFVTaFht_sXzFXx7eucjvxCsyqk-qE-Z-w3mPs9GqMFQh8QWAInKlpnB5g88befuFzUjXjINuKrXSwc9xWQykKEKeuu9wAXHxoaoHF3APGozn_Iq4pywmggX9blJ08DFkG8LbHFIWARyp-6Xki85ncJhi04LUyKBnrj2Whn-apz2B5p1v-H-25aclC9k5cmuM2-8klB0ciU2YaGIR5xJkvWANvg05TgZkDvcW56ThjXFaHbq6VOAOfdd__NwTtAjEOtPRNtlQxNIrPTIQqUzNq_i8ls0qmMxfndheLMc-kUy3P6EqDbH-ucTf5UoiFmTr- -wMfzTPeH2VNeRR9uDZPvtix2gfaa_HYj5hefKCT5sLyU77oshh8y99UGtViP8XEXP4ofhLXbq9wfV9AUhExrR5NkOMW3tBhU7NacQviWhvG8UbSzsaECs-cLfHjbu459sDuXMIu0VgyzZ40lP0HvNEMRg-ZAmJ4KpQNQ0hdkS75z0DTP5XBuO_1xpC5boVuBliv1cR08LIFwyTvGBVHZ0MexOzZmT8xIYo8aPZ3MLROKrK-hsr3P5Y50WSVYGXZGlPy8TK9KYp03F2PAEIVglfuFoT8s-3aP7qRiCuGkG7j3ANd9YsXUfYY1UVwCHqERZa9g4BVtA_kbpeQmyHNy1Pzrlq03fpQNm00]--></g></svg>